<svg aria-hidden="true" style="position: absolute; width: 0; height: 0; overflow: hidden;"
    version="1.1" xmlns="http://www.w3.org/2000/svg" xmlns:xlink="http://www.w3.org/1999/xlink">
    <defs>
        <symbol id="icon-phone" viewBox="0 0 32 32">
            <path
                d="M26.68 20.507c-1.64 0-3.227-0.267-4.707-0.747-0.467-0.16-0.987-0.040-1.347 0.32l-2.093 2.627c-3.773-1.8-7.307-5.2-9.187-9.107l2.6-2.213c0.36-0.373 0.467-0.893 0.32-1.36-0.493-1.48-0.747-3.067-0.747-4.707 0-0.72-0.6-1.32-1.32-1.32h-4.613c-0.72 0-1.587 0.32-1.587 1.32 0 12.387 10.307 22.68 22.68 22.68 0.947 0 1.32-0.84 1.32-1.573v-4.6c0-0.72-0.6-1.32-1.32-1.32z"></path>
        </symbol>
        <symbol id="icon-tg" viewBox="0 0 32 32">
            <path
                d="M32 16c0 4.243-1.686 8.313-4.686 11.314s-7.070 4.686-11.314 4.686-8.313-1.686-11.314-4.686c-3.001-3.001-4.686-7.070-4.686-11.314s1.686-8.313 4.686-11.314c3.001-3.001 7.070-4.686 11.314-4.686s8.313 1.686 11.314 4.686c3.001 3.001 4.686 7.070 4.686 11.314zM16.574 11.812c-1.556 0.648-4.668 1.988-9.332 4.020-0.756 0.3-1.154 0.596-1.19 0.884-0.060 0.486 0.55 0.678 1.38 0.94l0.35 0.11c0.816 0.266 1.916 0.576 2.486 0.588 0.52 0.012 1.098-0.2 1.736-0.64 4.358-2.942 6.608-4.428 6.748-4.46 0.1-0.024 0.24-0.052 0.332 0.032 0.094 0.082 0.084 0.24 0.074 0.282-0.060 0.258-2.454 2.482-3.692 3.634-0.386 0.36-0.66 0.614-0.716 0.672-0.123 0.126-0.249 0.25-0.376 0.372-0.76 0.732-1.328 1.28 0.030 2.176 0.654 0.432 1.178 0.786 1.7 1.142 0.568 0.388 1.136 0.774 1.872 1.258 0.186 0.12 0.366 0.25 0.54 0.374 0.662 0.472 1.26 0.896 1.994 0.828 0.428-0.040 0.87-0.44 1.094-1.64 0.53-2.834 1.572-8.972 1.812-11.502 0.015-0.21 0.006-0.422-0.026-0.63-0.019-0.168-0.1-0.323-0.228-0.434-0.182-0.126-0.399-0.191-0.62-0.186-0.6 0.010-1.526 0.332-5.968 2.18z"></path>
        </symbol>
        <symbol id="icon-vk" viewBox="0 0 32 32">
            <path
                d="M16 0c-8.837 0-16 7.163-16 16s7.163 16 16 16c8.837 0 16-7.163 16-16s-7.163-16-16-16zM22.153 18.052c0 0 1.415 1.397 1.763 2.045 0.010 0.013 0.015 0.027 0.018 0.033 0.142 0.238 0.175 0.423 0.105 0.562-0.117 0.23-0.517 0.343-0.653 0.353h-2.5c-0.173 0-0.537-0.045-0.977-0.348-0.338-0.237-0.672-0.625-0.997-1.003-0.485-0.563-0.905-1.050-1.328-1.050-0.054-0-0.107 0.008-0.158 0.025-0.32 0.103-0.73 0.56-0.73 1.777 0 0.38-0.3 0.598-0.512 0.598h-1.145c-0.39 0-2.422-0.137-4.222-2.035-2.203-2.325-4.187-6.988-4.203-7.032-0.125-0.302 0.133-0.463 0.415-0.463h2.525c0.337 0 0.447 0.205 0.523 0.387 0.090 0.212 0.42 1.053 0.962 2 0.878 1.543 1.417 2.17 1.848 2.17 0.081-0.001 0.16-0.021 0.232-0.060 0.563-0.313 0.458-2.322 0.433-2.738 0-0.078-0.002-0.898-0.29-1.292-0.207-0.285-0.558-0.393-0.772-0.433 0.086-0.119 0.2-0.216 0.332-0.282 0.387-0.193 1.083-0.222 1.775-0.222h0.385c0.75 0.010 0.943 0.058 1.215 0.127 0.55 0.132 0.562 0.487 0.513 1.702-0.015 0.345-0.030 0.735-0.030 1.195 0 0.1-0.005 0.207-0.005 0.32-0.017 0.618-0.037 1.32 0.4 1.608 0.057 0.036 0.123 0.055 0.19 0.055 0.152 0 0.608 0 1.845-2.122 0.381-0.683 0.713-1.393 0.992-2.123 0.025-0.043 0.098-0.177 0.185-0.228 0.064-0.033 0.135-0.049 0.207-0.048h2.968c0.323 0 0.545 0.048 0.587 0.173 0.073 0.198-0.013 0.803-1.368 2.638l-0.605 0.798c-1.228 1.61-1.228 1.692 0.077 2.913z"></path>
        </symbol>
    </defs>
</svg>
    